{"title":"This Property Is Condemned (1966). Natalie Wood. Robert Redford","uid":5470490,"size":1130303264,"categoryP":"video","categoryS":"movies","magnet":"?xt=urn:btih:de1477848c6c7268f3a3168a7297d4c2d82d9361&amp;dn=This+Property+Is+Condemned+%281966%29.+Natalie+Wood.+Robert+Redford&amp;tr=udp%3A%2F%2Ftracker.openbittorrent.com%3A80&amp;tr=udp%3A%2F%2Fopen.demonii.com%3A1337&amp;tr=udp%3A%2F%2Ftracker.coppersurfer.tk%3A6969&amp;tr=udp%3A%2F%2Fexodus.desync.com%3A6969","seeders":1,"leechers":0,"uploader":"classicman","files":1,"time":1269822469,"description":"This Property is Condemned was a condemned movie from the day it was made. It didn't win critical acclaim, nobody saw it and still there are only a few people who have even heard of it. And yet it's so beautiful that you really don't need to be persuaded to watch it. From the beginning, and as the story carries us to a condemned love affair between a beautiful and proud young woman who wants the world (but all she gets is all the men around her crawling on her feet) and a man (Robert Redford) that only wants to keep her safe from her pride, we witness the changes that can be brought by just one person, either that is the impact on the small town that Alva (Natalie Wood) lives or on her heart and life. The end is some kind of divine justice that we all want to prevent but no one manages to, but at the same time a lyrical hope in the form of the left behind (and astoundingly good) Mary Badham.\n\nFormat                           : MPEG-4\nFormat profile                   : Base Media\nCodec ID                         : isom\nFile size                        : 1.05 GiB\nDuration                         : 1h 49mn\nOverall bit rate                 : 1 371 Kbps\n\nVideo\nID                               : 1\nFormat                           : AVC\nFormat/Info                      : Advanced Video Codec\nFormat profile                   : &lt;a class=&quot;__cf_email__&quot; href=&quot;/cdn-cgi/l/email-protection&quot; data-cfemail=&quot;b9f4d8d0d7f9f588978a&quot;&gt;[email&amp;#160;protected]&lt;/a&gt;&lt;script cf-hash='f9e31' type=&quot;text/javascript&quot;&gt;\n/* &lt;![CDATA[ */!function(){try{var t=&quot;currentScript&quot;in document?document.currentScript:function(){for(var t=document.getElementsByTagName(&quot;script&quot;),e=t.length;e--;)if(t[e].getAttribute(&quot;cf-hash&quot;))return t[e]}();if(t&amp;&amp;t.previousSibling){var e,r,n,i,c=t.previousSibling,a=c.getAttribute(&quot;data-cfemail&quot;);if(a){for(e=&quot;&quot;,r=parseInt(a.substr(0,2),16),n=2;a.length-n;n+=2)i=parseInt(a.substr(n,2),16)^r,e+=String.fromCharCode(i);e=document.createTextNode(e),c.parentNode.replaceChild(e,c)}}}catch(u){}}();/* ]]&gt; */&lt;/script&gt;\nFormat settings, CABAC           : Yes\nFormat settings, ReFrames        : 1 frame\nCodec ID                         : avc1\nCodec ID/Info                    : Advanced Video Coding\nDuration                         : 1h 49mn\nBit rate mode                    : Variable\nBit rate                         : 1 238 Kbps\nWidth                            : 720 pixels\nHeight                           : 480 pixels\nDisplay aspect ratio             : 1.500\nFrame rate mode                  : Constant\nFrame rate                       : 29.970 fps\nStandard                         : NTSC\nResolution                       : 24 bits\nColorimetry                      : 4:2:0\nScan type                        : Progressive\nBits/(Pixel*Frame)               : 0.120\nStream size                      : 974 MiB (90%)\n\nAudio\nID                               : 2\nFormat                           : AAC\nFormat/Info                      : Advanced Audio Codec\nFormat version                   : Version 4\nFormat profile                   : LC\nFormat settings, SBR             : No\nCodec ID                         : 40\nDuration                         : 1h 49mn\nBit rate mode                    : Variable\nBit rate                         : 128 Kbps\nChannel(s)                       : 2 channels\nChannel positions                : L R\nSampling rate                    : 44.1 KHz\nResolution                       : 16 bits\nStream size                      : 101 MiB (9%)\n\nDVD RIP\nSorry No Subs.","torrent":{"xt":"urn:btih:de1477848c6c7268f3a3168a7297d4c2d82d9361","amp;dn":"This+Property+Is+Condemned+%281966%29.+Natalie+Wood.+Robert+Redford","amp;tr":["udp%3A%2F%2Ftracker.openbittorrent.com%3A80","udp%3A%2F%2Fopen.demonii.com%3A1337","udp%3A%2F%2Ftracker.coppersurfer.tk%3A6969","udp%3A%2F%2Fexodus.desync.com%3A6969"],"infoHash":"de1477848c6c7268f3a3168a7297d4c2d82d9361","infoHashBuffer":{"type":"Buffer","data":[222,20,119,132,140,108,114,104,243,163,22,138,114,151,212,194,216,45,147,97]},"announce":[],"urlList":[]}}